eac secure cues logs scans

Hank Mobley - The Complete Blue Note Hank Mobley Fifties Sessions (1998)


This is a typically remarkable box set from Mosaic. The six-CD limited-edition package has all of tenor saxophonist Hank Mobley's recordings as a leader for Blue Note from a three-year period, all of the music originally included in the albums titled The Hank Mobley Quartet, Hank Mobley Sextet, Hank Mobley & His All-Stars, Hank Mobley Quintet, Hank, Hank Mobley, Curtain Call, Poppin', and Peckin' Time; not a lot of imagination went into these records' original titles. There is only one previously unissued selection (the alternate take of "Barrel of Funk"), but two of the albums were only out previously in Japan, and most of the others had not been previously available on CD. Mobley, an underrated player with a distinctive sound (influenced at times by Sonny Rollins), would continue to grow as an improviser and composer throughout the 1960s, but even on his earliest date here, he is a strong (if unsung) soloist. Featured along with the leader is a who's who of 1950s hard bop, including trumpeters Donald Byrd, Lee Morgan, Bill Hardman, Kenny Dorham, and Art Farmer, pianists Horace Silver, Bobby Timmons, Sonny Clark, and Wynton Kelly, vibraphonist Milt Jackson, bassists Doug Watkins, Paul Chambers, Wilbur Ware, and Jimmy Rowser, and drummers Art Blakey, Charlie Persip, Philly Joe Jones, and Art Taylor. A must for Hank Mobley and 1950s Blue Note fans, but this deluxe box (released in 1998) promises to go out of print quickly. 

Catalogue Number: MD6-181
Recording Date: various
Location: Van Gelder Studio, Englewood Cliffs, NJ
Producer: Alfred Lion/Michael Cuscuna
Mastering: Rudy Van Gelder/Ron McMaster
Release: 1998
Total Time: 6 hours, 41 minutes, 43 seconds
Average Bitrate: 982 Kbps

Musicians:

Hank Mobley (tenor saxophone)
various sidemen

Tracklist:

Disc 1:

01 - Hank’s Prank
02 - My Sin
03 - Avila And Tequila
04 - Walkin’ The Fence
05 - Love For Sale
06 - Just Coolin’
07 - Hank’s Prank (alt tk)
08 - Walkin’ The Fence (alt tk)

released as BLP 5006: The Hank Mobley Quartet (and as Japanese CD-reissue)

09 - Touch And Go
10 - Double Whammy
11 - Barrel Of Funk
12 - Mobleymania

Disc 2:

01 - Barrel Of Funk (alt tk)

released as BLP 1540: Hank Mobley Sextet

02 - Reunion
03 - Ultramarine
04 - Don’t Walk
05 - Lower Stratosphere
06 - Mobley’s Musings

released as BLP 1544: Hank Mobley & His All-Stars

Disc 3:

01 - Funk In Deep Freeze
02 - Wham And They’re Off
03 - Fin De L’Affaire
04 - Startin’ From Scratch
05 - Stella-wise
06 - Base On Balls
07 - Funk In Deep Freeze (alt tk)
08 - Wham And They’re Off (alt tk)

released as BLP 1550: Hank Mobley Quintet (reissued on CD)

09 - Fit For A Hanker

Disc 4:

01 - Hi Groove, Low Feedback
02 - Easy To Love
03 - Time After Time
04 - Dance Of The Infidels

released as BLP 1560: Hank

05 - Mighty Moe And Joe
06 - Falling In Love with Love
07 - Bags’ Groove
08 - Double Exposure
09 - News
10 - Mighty Moe And Joe (alt tk)

released as BLP 1568: Hank Mobley

Disc 5:

01 - Don’t Get Too Hip
02 - Curtain Call
03 - Deep In A Dream
04 - The Mobe
05 - My Reverie
06 - On The Bright Side

released as (J) BN 61006: Curtain Call

07 - Poppin’
08 - Darn That Dream
09 - Gettin’ Into Something
10 - Tune Up

Disc 6:

01 - East Of Brooklyn

released as (J) GXF 3006: Poppin’

02 - High And Flighty
03 - Speak Low
04 - Peckin’ Time
05 - Stretchin’ Out
06 - Git-Go Blues
07 - High And Flighty (alt tk)
08 - Speak Low (alt tk)
09 - Stretchin’ Out (alt tk)


released as BLP 1574: Peckin' Time (reissued on CD)

EAC extraction logfile from 14. August 2006, 21:45 for CD
Hank Mobley / The Complete Blue Note Hank Mobley Fifties Sessions (Disc 1)

Used drive  : PLEXTOR CD-R   PX-W4824A   Adapter: 0  ID: 1
Read mode   : Secure with NO C2, accurate stream, disable cache
Read offset correction : 98
Overread into Lead-In and Lead-Out : Yes

Used output format : C:\Programme\FLAC\flac.exe   (User Defined Encoder)
                     128 kBit/s
                     Additional command line options : -8 -V -T "artist=%a" -T "title=%t" -T "album=%g" -T "date=%y" -T "tracknumber=%n" -T "genre=%m" -T "comment=Exact Audio Copy 0.95 b4 Secure Mode / FLAC q8 v. 1.1.2" %s

Other options      : 
    Fill up missing offset samples with silence : Yes
    Delete leading and trailing silent blocks : No
    Installed external ASPI interface


Track  1
     Filename D:\Hank Mobley - The Complete Blue Note Hank Mobley Fifties Sessions (1998) [FLAC] (Mosaic)\Disc 1 of 6\01 - Hank's Prank.wav

     Pre-gap length  0:00:02.00

     Peak level 92.1 %
     Track quality 100.0 %
     Test CRC 558E5809
     Copy CRC 558E5809
     Copy OK

Track  2
     Filename D:\Hank Mobley - The Complete Blue Note Hank Mobley Fifties Sessions (1998) [FLAC] (Mosaic)\Disc 1 of 6\02 - My Sin.wav

     Pre-gap length  0:00:02.42

     Peak level 79.3 %
     Track quality 100.0 %
     Test CRC 1B465F61
     Copy CRC 1B465F61
     Copy OK

Track  3
     Filename D:\Hank Mobley - The Complete Blue Note Hank Mobley Fifties Sessions (1998) [FLAC] (Mosaic)\Disc 1 of 6\03 - Avila And Tequila.wav

     Pre-gap length  0:00:02.62

     Peak level 96.4 %
     Track quality 100.0 %
     Test CRC 95239359
     Copy CRC 95239359
     Copy OK

Track  4
     Filename D:\Hank Mobley - The Complete Blue Note Hank Mobley Fifties Sessions (1998) [FLAC] (Mosaic)\Disc 1 of 6\04 - Walkin' The Fence.wav

     Pre-gap length  0:00:02.06

     Peak level 96.2 %
     Track quality 100.0 %
     Test CRC C7BBE73C
     Copy CRC C7BBE73C
     Copy OK

Track  5
     Filename D:\Hank Mobley - The Complete Blue Note Hank Mobley Fifties Sessions (1998) [FLAC] (Mosaic)\Disc 1 of 6\05 - Love For Sale.wav

     Pre-gap length  0:00:02.53

     Peak level 98.8 %
     Track quality 99.9 %
     Test CRC 5E65EE98
     Copy CRC 5E65EE98
     Copy OK

Track  6
     Filename D:\Hank Mobley - The Complete Blue Note Hank Mobley Fifties Sessions (1998) [FLAC] (Mosaic)\Disc 1 of 6\06 - Just Coolin'.wav

     Pre-gap length  0:00:01.93

     Peak level 88.9 %
     Track quality 100.0 %
     Test CRC 096FFECB
     Copy CRC 096FFECB
     Copy OK

Track  7
     Filename D:\Hank Mobley - The Complete Blue Note Hank Mobley Fifties Sessions (1998) [FLAC] (Mosaic)\Disc 1 of 6\07 - Hank's Prank (alt tk).wav

     Pre-gap length  0:00:02.56

     Peak level 98.8 %
     Track quality 100.0 %
     Test CRC 5072270A
     Copy CRC 5072270A
     Copy OK

Track  8
     Filename D:\Hank Mobley - The Complete Blue Note Hank Mobley Fifties Sessions (1998) [FLAC] (Mosaic)\Disc 1 of 6\08 - Walkin' The Fence (alt tk).wav

     Pre-gap length  0:00:02.80

     Peak level 98.8 %
     Track quality 100.0 %
     Test CRC C66C0C6B
     Copy CRC C66C0C6B
     Copy OK

Track  9
     Filename D:\Hank Mobley - The Complete Blue Note Hank Mobley Fifties Sessions (1998) [FLAC] (Mosaic)\Disc 1 of 6\09 - Touch And Go.wav

     Pre-gap length  0:00:02.29

     Peak level 88.1 %
     Track quality 99.9 %
     Test CRC 758CBA35
     Copy CRC 758CBA35
     Copy OK

Track 10
     Filename D:\Hank Mobley - The Complete Blue Note Hank Mobley Fifties Sessions (1998) [FLAC] (Mosaic)\Disc 1 of 6\10 - Double Whammy.wav

     Pre-gap length  0:00:02.33

     Peak level 83.1 %
     Track quality 100.0 %
     Test CRC 88052343
     Copy CRC 88052343
     Copy OK

Track 11
     Filename D:\Hank Mobley - The Complete Blue Note Hank Mobley Fifties Sessions (1998) [FLAC] (Mosaic)\Disc 1 of 6\11 - Barrel Of Funk.wav

     Pre-gap length  0:00:02.49

     Peak level 83.1 %
     Track quality 99.9 %
     Test CRC 7A38A627
     Copy CRC 7A38A627
     Copy OK

Track 12
     Filename D:\Hank Mobley - The Complete Blue Note Hank Mobley Fifties Sessions (1998) [FLAC] (Mosaic)\Disc 1 of 6\12 - Mobleymania.wav

     Pre-gap length  0:00:02.60

     Peak level 88.1 %
     Track quality 100.0 %
     Test CRC 3683FCCA
     Copy CRC 3683FCCA
     Copy OK

No errors occured


End of status report
Score: 100 (out of 100)
EAC extraction logfile from 15. August 2006, 17:30 for CD
Hank Mobley / The Complete Blue Note Hank Mobley Fifties Sessions (Disc 6)

Used drive  : PLEXTOR CD-R   PX-W4824A   Adapter: 0  ID: 1
Read mode   : Secure with NO C2, accurate stream, disable cache
Read offset correction : 98
Overread into Lead-In and Lead-Out : Yes

Used output format : C:\Programme\FLAC\flac.exe   (User Defined Encoder)
                     128 kBit/s
                     Additional command line options : -8 -V -T "artist=%a" -T "title=%t" -T "album=%g" -T "date=%y" -T "tracknumber=%n" -T "genre=%m" -T "comment=Exact Audio Copy 0.95 b4 Secure Mode / FLAC q8 v. 1.1.2" %s

Other options      : 
    Fill up missing offset samples with silence : Yes
    Delete leading and trailing silent blocks : No
    Installed external ASPI interface


Track  1
     Filename D:\Hank Mobley - The Complete Blue Note Hank Mobley Fifties Sessions (1998) [FLAC] (Mosaic)\Disc 6 of 6\01 - East Of Brooklyn.wav

     Pre-gap length  0:00:02.00

     Peak level 98.8 %
     Track quality 100.0 %
     Test CRC BB685A32
     Copy CRC BB685A32
     Copy OK

Track  2
     Filename D:\Hank Mobley - The Complete Blue Note Hank Mobley Fifties Sessions (1998) [FLAC] (Mosaic)\Disc 6 of 6\02 - High And Flighty.wav

     Pre-gap length  0:00:02.20

     Peak level 98.8 %
     Track quality 100.0 %
     Test CRC ECEB06C3
     Copy CRC ECEB06C3
     Copy OK

Track  3
     Filename D:\Hank Mobley - The Complete Blue Note Hank Mobley Fifties Sessions (1998) [FLAC] (Mosaic)\Disc 6 of 6\03 - Speak Low.wav

     Pre-gap length  0:00:02.10

     Peak level 98.8 %
     Track quality 100.0 %
     Test CRC 9E804D3A
     Copy CRC 9E804D3A
     Copy OK

Track  4
     Filename D:\Hank Mobley - The Complete Blue Note Hank Mobley Fifties Sessions (1998) [FLAC] (Mosaic)\Disc 6 of 6\04 - Peckin' Time.wav

     Pre-gap length  0:00:02.06

     Peak level 98.8 %
     Track quality 100.0 %
     Test CRC 97724FB0
     Copy CRC 97724FB0
     Copy OK

Track  5
     Filename D:\Hank Mobley - The Complete Blue Note Hank Mobley Fifties Sessions (1998) [FLAC] (Mosaic)\Disc 6 of 6\05 - Stretchin' Out.wav

     Pre-gap length  0:00:02.13

     Peak level 98.8 %
     Track quality 100.0 %
     Test CRC 1111EEBE
     Copy CRC 1111EEBE
     Copy OK

Track  6
     Filename D:\Hank Mobley - The Complete Blue Note Hank Mobley Fifties Sessions (1998) [FLAC] (Mosaic)\Disc 6 of 6\06 - Git-Go Blues.wav

     Pre-gap length  0:00:02.22

     Peak level 98.8 %
     Track quality 100.0 %
     Test CRC C2677A00
     Copy CRC C2677A00
     Copy OK

Track  7
     Filename D:\Hank Mobley - The Complete Blue Note Hank Mobley Fifties Sessions (1998) [FLAC] (Mosaic)\Disc 6 of 6\07 - High And Flighty (alt tk).wav

     Pre-gap length  0:00:02.30

     Peak level 98.8 %
     Track quality 100.0 %
     Test CRC 8A6903A1
     Copy CRC 8A6903A1
     Copy OK

Track  8
     Filename D:\Hank Mobley - The Complete Blue Note Hank Mobley Fifties Sessions (1998) [FLAC] (Mosaic)\Disc 6 of 6\08 - Speak Low (alt tk).wav

     Pre-gap length  0:00:02.04

     Peak level 98.8 %
     Track quality 99.9 %
     Test CRC 01CF22BC
     Copy CRC 01CF22BC
     Copy OK

Track  9
     Filename D:\Hank Mobley - The Complete Blue Note Hank Mobley Fifties Sessions (1998) [FLAC] (Mosaic)\Disc 6 of 6\09 - Stretchin' Out (alt tk).wav

     Pre-gap length  0:00:02.66

     Peak level 98.8 %
     Track quality 99.9 %
     Test CRC 3645B56A
     Copy CRC 3645B56A
     Copy OK

No errors occured


End of status report
Score: 100 (out of 100)
EAC extraction logfile from 15. August 2006, 14:29 for CD
Hank Mobley / The Complete Blue Note Hank Mobley Fifties Sessions (Disc 3)

Used drive  : PLEXTOR CD-R   PX-W4824A   Adapter: 0  ID: 1
Read mode   : Secure with NO C2, accurate stream, disable cache
Read offset correction : 98
Overread into Lead-In and Lead-Out : Yes

Used output format : C:\Programme\FLAC\flac.exe   (User Defined Encoder)
                     128 kBit/s
                     Additional command line options : -8 -V -T "artist=%a" -T "title=%t" -T "album=%g" -T "date=%y" -T "tracknumber=%n" -T "genre=%m" -T "comment=Exact Audio Copy 0.95 b4 Secure Mode / FLAC q8 v. 1.1.2" %s

Other options      : 
    Fill up missing offset samples with silence : Yes
    Delete leading and trailing silent blocks : No
    Installed external ASPI interface


Track  1
     Filename D:\Hank Mobley - The Complete Blue Note Hank Mobley Fifties Sessions (1998) [FLAC] (Mosaic)\Disc 3 of 6\01 - Funk In Deep Freeze.wav

     Pre-gap length  0:00:02.00

     Peak level 98.8 %
     Track quality 99.9 %
     Test CRC C4765365
     Copy CRC C4765365
     Copy OK

Track  2
     Filename D:\Hank Mobley - The Complete Blue Note Hank Mobley Fifties Sessions (1998) [FLAC] (Mosaic)\Disc 3 of 6\02 - Wham And They're Off.wav

     Pre-gap length  0:00:02.44

     Peak level 98.8 %
     Track quality 100.0 %
     Test CRC 179B10B6
     Copy CRC 179B10B6
     Copy OK

Track  3
     Filename D:\Hank Mobley - The Complete Blue Note Hank Mobley Fifties Sessions (1998) [FLAC] (Mosaic)\Disc 3 of 6\03 - Fin De L'Affaire.wav

     Pre-gap length  0:00:02.04

     Peak level 98.8 %
     Track quality 100.0 %
     Test CRC 22113FF1
     Copy CRC 22113FF1
     Copy OK

Track  4
     Filename D:\Hank Mobley - The Complete Blue Note Hank Mobley Fifties Sessions (1998) [FLAC] (Mosaic)\Disc 3 of 6\04 - Startin' From Scratch.wav

     Pre-gap length  0:00:01.76

     Peak level 98.8 %
     Track quality 100.0 %
     Test CRC 1B36992E
     Copy CRC 1B36992E
     Copy OK

Track  5
     Filename D:\Hank Mobley - The Complete Blue Note Hank Mobley Fifties Sessions (1998) [FLAC] (Mosaic)\Disc 3 of 6\05 - Stella-wise.wav

     Pre-gap length  0:00:02.20

     Peak level 98.8 %
     Track quality 100.0 %
     Test CRC 8EE48F8A
     Copy CRC 8EE48F8A
     Copy OK

Track  6
     Filename D:\Hank Mobley - The Complete Blue Note Hank Mobley Fifties Sessions (1998) [FLAC] (Mosaic)\Disc 3 of 6\06 - Base On Balls.wav

     Pre-gap length  0:00:02.53

     Peak level 98.8 %
     Track quality 100.0 %
     Test CRC EB878F11
     Copy CRC EB878F11
     Copy OK

Track  7
     Filename D:\Hank Mobley - The Complete Blue Note Hank Mobley Fifties Sessions (1998) [FLAC] (Mosaic)\Disc 3 of 6\07 - Funk In Deep Freeze (alt tk).wav

     Pre-gap length  0:00:02.46

     Peak level 98.8 %
     Track quality 99.9 %
     Test CRC 73ED326D
     Copy CRC 73ED326D
     Copy OK

Track  8
     Filename D:\Hank Mobley - The Complete Blue Note Hank Mobley Fifties Sessions (1998) [FLAC] (Mosaic)\Disc 3 of 6\08 - Wham And They're Off (alt tk).wav

     Pre-gap length  0:00:02.97

     Peak level 98.8 %
     Track quality 100.0 %
     Test CRC F15B2778
     Copy CRC F15B2778
     Copy OK

Track  9
     Filename D:\Hank Mobley - The Complete Blue Note Hank Mobley Fifties Sessions (1998) [FLAC] (Mosaic)\Disc 3 of 6\09 - Fit For A Hanker.wav

     Pre-gap length  0:00:01.97

     Peak level 98.8 %
     Track quality 100.0 %
     Test CRC 4B17D279
     Copy CRC 4B17D279
     Copy OK

No errors occured


End of status report
Score: 100 (out of 100)
EAC extraction logfile from 15. August 2006, 16:34 for CD
Hank Mobley / The Complete Blue Note Hank Mobley Fifties Sessions (Disc 5)

Used drive  : PLEXTOR CD-R   PX-W4824A   Adapter: 0  ID: 1
Read mode   : Secure with NO C2, accurate stream, disable cache
Read offset correction : 98
Overread into Lead-In and Lead-Out : Yes

Used output format : C:\Programme\FLAC\flac.exe   (User Defined Encoder)
                     128 kBit/s
                     Additional command line options : -8 -V -T "artist=%a" -T "title=%t" -T "album=%g" -T "date=%y" -T "tracknumber=%n" -T "genre=%m" -T "comment=Exact Audio Copy 0.95 b4 Secure Mode / FLAC q8 v. 1.1.2" %s

Other options      : 
    Fill up missing offset samples with silence : Yes
    Delete leading and trailing silent blocks : No
    Installed external ASPI interface


Track  1
     Filename D:\Hank Mobley - The Complete Blue Note Hank Mobley Fifties Sessions (1998) [FLAC] (Mosaic)\Disc 5 of 6\01 - Don't Get Too Hip.wav

     Pre-gap length  0:00:02.00

     Peak level 98.8 %
     Track quality 100.0 %
     Test CRC 4B4FF065
     Copy CRC 4B4FF065
     Copy OK

Track  2
     Filename D:\Hank Mobley - The Complete Blue Note Hank Mobley Fifties Sessions (1998) [FLAC] (Mosaic)\Disc 5 of 6\02 - Curtain Call.wav

     Pre-gap length  0:00:02.33

     Peak level 98.8 %
     Track quality 100.0 %
     Test CRC F259C92C
     Copy CRC F259C92C
     Copy OK

Track  3
     Filename D:\Hank Mobley - The Complete Blue Note Hank Mobley Fifties Sessions (1998) [FLAC] (Mosaic)\Disc 5 of 6\03 - Deep In A Dream.wav

     Pre-gap length  0:00:03.04

     Peak level 94.7 %
     Track quality 100.0 %
     Test CRC 0AA151AA
     Copy CRC 0AA151AA
     Copy OK

Track  4
     Filename D:\Hank Mobley - The Complete Blue Note Hank Mobley Fifties Sessions (1998) [FLAC] (Mosaic)\Disc 5 of 6\04 - The Mobe.wav

     Pre-gap length  0:00:02.30

     Peak level 98.5 %
     Track quality 100.0 %
     Test CRC 4990666B
     Copy CRC 4990666B
     Copy OK

Track  5
     Filename D:\Hank Mobley - The Complete Blue Note Hank Mobley Fifties Sessions (1998) [FLAC] (Mosaic)\Disc 5 of 6\05 - My Reverie.wav

     Pre-gap length  0:00:02.26

     Peak level 97.6 %
     Track quality 100.0 %
     Test CRC 9C3C4A5A
     Copy CRC 9C3C4A5A
     Copy OK

Track  6
     Filename D:\Hank Mobley - The Complete Blue Note Hank Mobley Fifties Sessions (1998) [FLAC] (Mosaic)\Disc 5 of 6\06 - On The Bright Side.wav

     Pre-gap length  0:00:01.80

     Peak level 98.8 %
     Track quality 100.0 %
     Test CRC D2F6B502
     Copy CRC D2F6B502
     Copy OK

Track  7
     Filename D:\Hank Mobley - The Complete Blue Note Hank Mobley Fifties Sessions (1998) [FLAC] (Mosaic)\Disc 5 of 6\07 - Poppin'.wav

     Pre-gap length  0:00:02.49

     Peak level 98.4 %
     Track quality 100.0 %
     Test CRC 8EB55B69
     Copy CRC 8EB55B69
     Copy OK

Track  8
     Filename D:\Hank Mobley - The Complete Blue Note Hank Mobley Fifties Sessions (1998) [FLAC] (Mosaic)\Disc 5 of 6\08 - Darn That Dream.wav

     Pre-gap length  0:00:02.00

     Peak level 94.5 %
     Track quality 100.0 %
     Test CRC 98506A6C
     Copy CRC 98506A6C
     Copy OK

Track  9
     Filename D:\Hank Mobley - The Complete Blue Note Hank Mobley Fifties Sessions (1998) [FLAC] (Mosaic)\Disc 5 of 6\09 - Gettin' Into Something.wav

     Pre-gap length  0:00:02.13

     Peak level 98.4 %
     Track quality 100.0 %
     Test CRC 80ACDF73
     Copy CRC 80ACDF73
     Copy OK

Track 10
     Filename D:\Hank Mobley - The Complete Blue Note Hank Mobley Fifties Sessions (1998) [FLAC] (Mosaic)\Disc 5 of 6\10 - Tune Up.wav

     Pre-gap length  0:00:01.90

     Peak level 98.8 %
     Track quality 99.9 %
     Test CRC 848AE29C
     Copy CRC 848AE29C
     Copy OK

No errors occured


End of status report
Score: 100 (out of 100)
EAC extraction logfile from 15. August 2006, 15:26 for CD
Hank Mobley / The Complete Blue Note Hank Mobley Fifties Sessions (Disc 4)

Used drive  : PLEXTOR CD-R   PX-W4824A   Adapter: 0  ID: 1
Read mode   : Secure with NO C2, accurate stream, disable cache
Read offset correction : 98
Overread into Lead-In and Lead-Out : Yes

Used output format : C:\Programme\FLAC\flac.exe   (User Defined Encoder)
                     128 kBit/s
                     Additional command line options : -8 -V -T "artist=%a" -T "title=%t" -T "album=%g" -T "date=%y" -T "tracknumber=%n" -T "genre=%m" -T "comment=Exact Audio Copy 0.95 b4 Secure Mode / FLAC q8 v. 1.1.2" %s

Other options      : 
    Fill up missing offset samples with silence : Yes
    Delete leading and trailing silent blocks : No
    Installed external ASPI interface


Track  1
     Filename D:\Hank Mobley - The Complete Blue Note Hank Mobley Fifties Sessions (1998) [FLAC] (Mosaic)\Disc 4 of 6\01 - Hi Groove, Low Feedback.wav

     Pre-gap length  0:00:02.00

     Peak level 88.1 %
     Track quality 100.0 %
     Test CRC DE3FAB06
     Copy CRC DE3FAB06
     Copy OK

Track  2
     Filename D:\Hank Mobley - The Complete Blue Note Hank Mobley Fifties Sessions (1998) [FLAC] (Mosaic)\Disc 4 of 6\02 - Easy To Love.wav

     Pre-gap length  0:00:02.30

     Peak level 88.1 %
     Track quality 100.0 %
     Test CRC 4BAE7EAD
     Copy CRC 4BAE7EAD
     Copy OK

Track  3
     Filename D:\Hank Mobley - The Complete Blue Note Hank Mobley Fifties Sessions (1998) [FLAC] (Mosaic)\Disc 4 of 6\03 - Time After Time.wav

     Pre-gap length  0:00:02.44

     Peak level 88.1 %
     Track quality 100.0 %
     Test CRC 38201B38
     Copy CRC 38201B38
     Copy OK

Track  4
     Filename D:\Hank Mobley - The Complete Blue Note Hank Mobley Fifties Sessions (1998) [FLAC] (Mosaic)\Disc 4 of 6\04 - Dance Of The Infidels.wav

     Pre-gap length  0:00:02.46

     Peak level 88.1 %
     Track quality 99.9 %
     Test CRC 5A50C862
     Copy CRC 5A50C862
     Copy OK

Track  5
     Filename D:\Hank Mobley - The Complete Blue Note Hank Mobley Fifties Sessions (1998) [FLAC] (Mosaic)\Disc 4 of 6\05 - Mighty Moe And Joe.wav

     Pre-gap length  0:00:01.93

     Peak level 98.8 %
     Track quality 100.0 %
     Test CRC 608A403C
     Copy CRC 608A403C
     Copy OK

Track  6
     Filename D:\Hank Mobley - The Complete Blue Note Hank Mobley Fifties Sessions (1998) [FLAC] (Mosaic)\Disc 4 of 6\06 - Falling In Love with Love.wav

     Pre-gap length  0:00:03.00

     Peak level 98.8 %
     Track quality 100.0 %
     Test CRC 7DC1EC8A
     Copy CRC 7DC1EC8A
     Copy OK

Track  7
     Filename D:\Hank Mobley - The Complete Blue Note Hank Mobley Fifties Sessions (1998) [FLAC] (Mosaic)\Disc 4 of 6\07 - Bags' Groove.wav

     Pre-gap length  0:00:01.66

     Peak level 98.8 %
     Track quality 100.0 %
     Test CRC 7D87C2C1
     Copy CRC 7D87C2C1
     Copy OK

Track  8
     Filename D:\Hank Mobley - The Complete Blue Note Hank Mobley Fifties Sessions (1998) [FLAC] (Mosaic)\Disc 4 of 6\08 - Double Exposure.wav

     Pre-gap length  0:00:02.70

     Peak level 98.8 %
     Track quality 100.0 %
     Test CRC 4789B357
     Copy CRC 4789B357
     Copy OK

Track  9
     Filename D:\Hank Mobley - The Complete Blue Note Hank Mobley Fifties Sessions (1998) [FLAC] (Mosaic)\Disc 4 of 6\09 - News.wav

     Pre-gap length  0:00:02.00

     Peak level 98.8 %
     Track quality 99.9 %
     Test CRC F229DF9C
     Copy CRC F229DF9C
     Copy OK

Track 10
     Filename D:\Hank Mobley - The Complete Blue Note Hank Mobley Fifties Sessions (1998) [FLAC] (Mosaic)\Disc 4 of 6\10 - Mighty Moe And Joe (alt tk).wav

     Pre-gap length  0:00:01.93

     Peak level 98.8 %
     Track quality 100.0 %
     Test CRC 886CC1B9
     Copy CRC 886CC1B9
     Copy OK

No errors occured


End of status report
Score: 100 (out of 100)
EAC extraction logfile from 14. August 2006, 22:34 for CD
Hank Mobley / The Complete Blue Note Hank Mobley Fifties Sessions (Disc 2)

Used drive  : PLEXTOR CD-R   PX-W4824A   Adapter: 0  ID: 1
Read mode   : Secure with NO C2, accurate stream, disable cache
Read offset correction : 98
Overread into Lead-In and Lead-Out : Yes

Used output format : C:\Programme\FLAC\flac.exe   (User Defined Encoder)
                     128 kBit/s
                     Additional command line options : -8 -V -T "artist=%a" -T "title=%t" -T "album=%g" -T "date=%y" -T "tracknumber=%n" -T "genre=%m" -T "comment=Exact Audio Copy 0.95 b4 Secure Mode / FLAC q8 v. 1.1.2" %s

Other options      : 
    Fill up missing offset samples with silence : Yes
    Delete leading and trailing silent blocks : No
    Installed external ASPI interface


Track  1
     Filename D:\Hank Mobley - The Complete Blue Note Hank Mobley Fifties Sessions (1998) [FLAC] (Mosaic)\Disc 2 of 6\01 - Barrel Of Funk (alt tk).wav

     Pre-gap length  0:00:02.00

     Peak level 83.1 %
     Track quality 100.0 %
     Test CRC A6F35ABD
     Copy CRC A6F35ABD
     Copy OK

Track  2
     Filename D:\Hank Mobley - The Complete Blue Note Hank Mobley Fifties Sessions (1998) [FLAC] (Mosaic)\Disc 2 of 6\02 - Reunion.wav

     Pre-gap length  0:00:03.29

     Peak level 85.5 %
     Track quality 100.0 %
     Test CRC 46BEF920
     Copy CRC 46BEF920
     Copy OK

Track  3
     Filename D:\Hank Mobley - The Complete Blue Note Hank Mobley Fifties Sessions (1998) [FLAC] (Mosaic)\Disc 2 of 6\03 - Ultramarine.wav

     Pre-gap length  0:00:02.13

     Peak level 89.5 %
     Track quality 99.9 %
     Test CRC 09CD2639
     Copy CRC 09CD2639
     Copy OK

Track  4
     Filename D:\Hank Mobley - The Complete Blue Note Hank Mobley Fifties Sessions (1998) [FLAC] (Mosaic)\Disc 2 of 6\04 - Don't Walk.wav

     Pre-gap length  0:00:02.40

     Peak level 95.4 %
     Track quality 100.0 %
     Test CRC 9ECA92D5
     Copy CRC 9ECA92D5
     Copy OK

Track  5
     Filename D:\Hank Mobley - The Complete Blue Note Hank Mobley Fifties Sessions (1998) [FLAC] (Mosaic)\Disc 2 of 6\05 - Lower Stratosphere.wav

     Pre-gap length  0:00:02.46

     Peak level 96.0 %
     Track quality 100.0 %
     Test CRC 93BE8D73
     Copy CRC 93BE8D73
     Copy OK

Track  6
     Filename D:\Hank Mobley - The Complete Blue Note Hank Mobley Fifties Sessions (1998) [FLAC] (Mosaic)\Disc 2 of 6\06 - Mobley's Musings.wav

     Pre-gap length  0:00:02.06

     Peak level 67.9 %
     Track quality 100.0 %
     Test CRC A12B7DF7
     Copy CRC A12B7DF7
     Copy OK

No errors occured


End of status report
Score: 100 (out of 100)
EAC extraction logfile from 14. August 2006, 21:45 for CD
Hank Mobley / The Complete Blue Note Hank Mobley Fifties Sessions (Disc 1)

Used drive  : PLEXTOR CD-R   PX-W4824A   Adapter: 0  ID: 1
Read mode   : Secure with NO C2, accurate stream, disable cache
Read offset correction : 98
Overread into Lead-In and Lead-Out : Yes

Used output format : C:\Programme\FLAC\flac.exe   (User Defined Encoder)
                     128 kBit/s
                     Additional command line options : -8 -V -T "artist=%a" -T "title=%t" -T "album=%g" -T "date=%y" -T "tracknumber=%n" -T "genre=%m" -T "comment=Exact Audio Copy 0.95 b4 Secure Mode / FLAC q8 v. 1.1.2" %s

Other options      : 
    Fill up missing offset samples with silence : Yes
    Delete leading and trailing silent blocks : No
    Installed external ASPI interface


Track  1
     Filename D:\Hank Mobley - The Complete Blue Note Hank Mobley Fifties Sessions (1998) [FLAC] (Mosaic)\Disc 1 of 6\01 - Hank's Prank.wav

     Pre-gap length  0:00:02.00

     Peak level 92.1 %
     Track quality 100.0 %
     Test CRC 558E5809
     Copy CRC 558E5809
     Copy OK

Track  2
     Filename D:\Hank Mobley - The Complete Blue Note Hank Mobley Fifties Sessions (1998) [FLAC] (Mosaic)\Disc 1 of 6\02 - My Sin.wav

     Pre-gap length  0:00:02.42

     Peak level 79.3 %
     Track quality 100.0 %
     Test CRC 1B465F61
     Copy CRC 1B465F61
     Copy OK

Track  3
     Filename D:\Hank Mobley - The Complete Blue Note Hank Mobley Fifties Sessions (1998) [FLAC] (Mosaic)\Disc 1 of 6\03 - Avila And Tequila.wav

     Pre-gap length  0:00:02.62

     Peak level 96.4 %
     Track quality 100.0 %
     Test CRC 95239359
     Copy CRC 95239359
     Copy OK

Track  4
     Filename D:\Hank Mobley - The Complete Blue Note Hank Mobley Fifties Sessions (1998) [FLAC] (Mosaic)\Disc 1 of 6\04 - Walkin' The Fence.wav

     Pre-gap length  0:00:02.06

     Peak level 96.2 %
     Track quality 100.0 %
     Test CRC C7BBE73C
     Copy CRC C7BBE73C
     Copy OK

Track  5
     Filename D:\Hank Mobley - The Complete Blue Note Hank Mobley Fifties Sessions (1998) [FLAC] (Mosaic)\Disc 1 of 6\05 - Love For Sale.wav

     Pre-gap length  0:00:02.53

     Peak level 98.8 %
     Track quality 99.9 %
     Test CRC 5E65EE98
     Copy CRC 5E65EE98
     Copy OK

Track  6
     Filename D:\Hank Mobley - The Complete Blue Note Hank Mobley Fifties Sessions (1998) [FLAC] (Mosaic)\Disc 1 of 6\06 - Just Coolin'.wav

     Pre-gap length  0:00:01.93

     Peak level 88.9 %
     Track quality 100.0 %
     Test CRC 096FFECB
     Copy CRC 096FFECB
     Copy OK

Track  7
     Filename D:\Hank Mobley - The Complete Blue Note Hank Mobley Fifties Sessions (1998) [FLAC] (Mosaic)\Disc 1 of 6\07 - Hank's Prank (alt tk).wav

     Pre-gap length  0:00:02.56

     Peak level 98.8 %
     Track quality 100.0 %
     Test CRC 5072270A
     Copy CRC 5072270A
     Copy OK

Track  8
     Filename D:\Hank Mobley - The Complete Blue Note Hank Mobley Fifties Sessions (1998) [FLAC] (Mosaic)\Disc 1 of 6\08 - Walkin' The Fence (alt tk).wav

     Pre-gap length  0:00:02.80

     Peak level 98.8 %
     Track quality 100.0 %
     Test CRC C66C0C6B
     Copy CRC C66C0C6B
     Copy OK

Track  9
     Filename D:\Hank Mobley - The Complete Blue Note Hank Mobley Fifties Sessions (1998) [FLAC] (Mosaic)\Disc 1 of 6\09 - Touch And Go.wav

     Pre-gap length  0:00:02.29

     Peak level 88.1 %
     Track quality 99.9 %
     Test CRC 758CBA35
     Copy CRC 758CBA35
     Copy OK

Track 10
     Filename D:\Hank Mobley - The Complete Blue Note Hank Mobley Fifties Sessions (1998) [FLAC] (Mosaic)\Disc 1 of 6\10 - Double Whammy.wav

     Pre-gap length  0:00:02.33

     Peak level 83.1 %
     Track quality 100.0 %
     Test CRC 88052343
     Copy CRC 88052343
     Copy OK

Track 11
     Filename D:\Hank Mobley - The Complete Blue Note Hank Mobley Fifties Sessions (1998) [FLAC] (Mosaic)\Disc 1 of 6\11 - Barrel Of Funk.wav

     Pre-gap length  0:00:02.49

     Peak level 83.1 %
     Track quality 99.9 %
     Test CRC 7A38A627
     Copy CRC 7A38A627
     Copy OK

Track 12
     Filename D:\Hank Mobley - The Complete Blue Note Hank Mobley Fifties Sessions (1998) [FLAC] (Mosaic)\Disc 1 of 6\12 - Mobleymania.wav

     Pre-gap length  0:00:02.60

     Peak level 88.1 %
     Track quality 100.0 %
     Test CRC 3683FCCA
     Copy CRC 3683FCCA
     Copy OK

No errors occured


End of status report
--------------------
EAC extraction logfile from 14. August 2006, 22:34 for CD
Hank Mobley / The Complete Blue Note Hank Mobley Fifties Sessions (Disc 2)

Used drive  : PLEXTOR CD-R   PX-W4824A   Adapter: 0  ID: 1
Read mode   : Secure with NO C2, accurate stream, disable cache
Read offset correction : 98
Overread into Lead-In and Lead-Out : Yes

Used output format : C:\Programme\FLAC\flac.exe   (User Defined Encoder)
                     128 kBit/s
                     Additional command line options : -8 -V -T "artist=%a" -T "title=%t" -T "album=%g" -T "date=%y" -T "tracknumber=%n" -T "genre=%m" -T "comment=Exact Audio Copy 0.95 b4 Secure Mode / FLAC q8 v. 1.1.2" %s

Other options      : 
    Fill up missing offset samples with silence : Yes
    Delete leading and trailing silent blocks : No
    Installed external ASPI interface


Track  1
     Filename D:\Hank Mobley - The Complete Blue Note Hank Mobley Fifties Sessions (1998) [FLAC] (Mosaic)\Disc 2 of 6\01 - Barrel Of Funk (alt tk).wav

     Pre-gap length  0:00:02.00

     Peak level 83.1 %
     Track quality 100.0 %
     Test CRC A6F35ABD
     Copy CRC A6F35ABD
     Copy OK

Track  2
     Filename D:\Hank Mobley - The Complete Blue Note Hank Mobley Fifties Sessions (1998) [FLAC] (Mosaic)\Disc 2 of 6\02 - Reunion.wav

     Pre-gap length  0:00:03.29

     Peak level 85.5 %
     Track quality 100.0 %
     Test CRC 46BEF920
     Copy CRC 46BEF920
     Copy OK

Track  3
     Filename D:\Hank Mobley - The Complete Blue Note Hank Mobley Fifties Sessions (1998) [FLAC] (Mosaic)\Disc 2 of 6\03 - Ultramarine.wav

     Pre-gap length  0:00:02.13

     Peak level 89.5 %
     Track quality 99.9 %
     Test CRC 09CD2639
     Copy CRC 09CD2639
     Copy OK

Track  4
     Filename D:\Hank Mobley - The Complete Blue Note Hank Mobley Fifties Sessions (1998) [FLAC] (Mosaic)\Disc 2 of 6\04 - Don't Walk.wav

     Pre-gap length  0:00:02.40

     Peak level 95.4 %
     Track quality 100.0 %
     Test CRC 9ECA92D5
     Copy CRC 9ECA92D5
     Copy OK

Track  5
     Filename D:\Hank Mobley - The Complete Blue Note Hank Mobley Fifties Sessions (1998) [FLAC] (Mosaic)\Disc 2 of 6\05 - Lower Stratosphere.wav

     Pre-gap length  0:00:02.46

     Peak level 96.0 %
     Track quality 100.0 %
     Test CRC 93BE8D73
     Copy CRC 93BE8D73
     Copy OK

Track  6
     Filename D:\Hank Mobley - The Complete Blue Note Hank Mobley Fifties Sessions (1998) [FLAC] (Mosaic)\Disc 2 of 6\06 - Mobley's Musings.wav

     Pre-gap length  0:00:02.06

     Peak level 67.9 %
     Track quality 100.0 %
     Test CRC A12B7DF7
     Copy CRC A12B7DF7
     Copy OK

No errors occured


End of status report
--------------------
EAC extraction logfile from 15. August 2006, 14:29 for CD
Hank Mobley / The Complete Blue Note Hank Mobley Fifties Sessions (Disc 3)

Used drive  : PLEXTOR CD-R   PX-W4824A   Adapter: 0  ID: 1
Read mode   : Secure with NO C2, accurate stream, disable cache
Read offset correction : 98
Overread into Lead-In and Lead-Out : Yes

Used output format : C:\Programme\FLAC\flac.exe   (User Defined Encoder)
                     128 kBit/s
                     Additional command line options : -8 -V -T "artist=%a" -T "title=%t" -T "album=%g" -T "date=%y" -T "tracknumber=%n" -T "genre=%m" -T "comment=Exact Audio Copy 0.95 b4 Secure Mode / FLAC q8 v. 1.1.2" %s

Other options      : 
    Fill up missing offset samples with silence : Yes
    Delete leading and trailing silent blocks : No
    Installed external ASPI interface


Track  1
     Filename D:\Hank Mobley - The Complete Blue Note Hank Mobley Fifties Sessions (1998) [FLAC] (Mosaic)\Disc 3 of 6\01 - Funk In Deep Freeze.wav

     Pre-gap length  0:00:02.00

     Peak level 98.8 %
     Track quality 99.9 %
     Test CRC C4765365
     Copy CRC C4765365
     Copy OK

Track  2
     Filename D:\Hank Mobley - The Complete Blue Note Hank Mobley Fifties Sessions (1998) [FLAC] (Mosaic)\Disc 3 of 6\02 - Wham And They're Off.wav

     Pre-gap length  0:00:02.44

     Peak level 98.8 %
     Track quality 100.0 %
     Test CRC 179B10B6
     Copy CRC 179B10B6
     Copy OK

Track  3
     Filename D:\Hank Mobley - The Complete Blue Note Hank Mobley Fifties Sessions (1998) [FLAC] (Mosaic)\Disc 3 of 6\03 - Fin De L'Affaire.wav

     Pre-gap length  0:00:02.04

     Peak level 98.8 %
     Track quality 100.0 %
     Test CRC 22113FF1
     Copy CRC 22113FF1
     Copy OK

Track  4
     Filename D:\Hank Mobley - The Complete Blue Note Hank Mobley Fifties Sessions (1998) [FLAC] (Mosaic)\Disc 3 of 6\04 - Startin' From Scratch.wav

     Pre-gap length  0:00:01.76

     Peak level 98.8 %
     Track quality 100.0 %
     Test CRC 1B36992E
     Copy CRC 1B36992E
     Copy OK

Track  5
     Filename D:\Hank Mobley - The Complete Blue Note Hank Mobley Fifties Sessions (1998) [FLAC] (Mosaic)\Disc 3 of 6\05 - Stella-wise.wav

     Pre-gap length  0:00:02.20

     Peak level 98.8 %
     Track quality 100.0 %
     Test CRC 8EE48F8A
     Copy CRC 8EE48F8A
     Copy OK

Track  6
     Filename D:\Hank Mobley - The Complete Blue Note Hank Mobley Fifties Sessions (1998) [FLAC] (Mosaic)\Disc 3 of 6\06 - Base On Balls.wav

     Pre-gap length  0:00:02.53

     Peak level 98.8 %
     Track quality 100.0 %
     Test CRC EB878F11
     Copy CRC EB878F11
     Copy OK

Track  7
     Filename D:\Hank Mobley - The Complete Blue Note Hank Mobley Fifties Sessions (1998) [FLAC] (Mosaic)\Disc 3 of 6\07 - Funk In Deep Freeze (alt tk).wav

     Pre-gap length  0:00:02.46

     Peak level 98.8 %
     Track quality 99.9 %
     Test CRC 73ED326D
     Copy CRC 73ED326D
     Copy OK

Track  8
     Filename D:\Hank Mobley - The Complete Blue Note Hank Mobley Fifties Sessions (1998) [FLAC] (Mosaic)\Disc 3 of 6\08 - Wham And They're Off (alt tk).wav

     Pre-gap length  0:00:02.97

     Peak level 98.8 %
     Track quality 100.0 %
     Test CRC F15B2778
     Copy CRC F15B2778
     Copy OK

Track  9
     Filename D:\Hank Mobley - The Complete Blue Note Hank Mobley Fifties Sessions (1998) [FLAC] (Mosaic)\Disc 3 of 6\09 - Fit For A Hanker.wav

     Pre-gap length  0:00:01.97

     Peak level 98.8 %
     Track quality 100.0 %
     Test CRC 4B17D279
     Copy CRC 4B17D279
     Copy OK

No errors occured


End of status report
--------------------
EAC extraction logfile from 15. August 2006, 15:26 for CD
Hank Mobley / The Complete Blue Note Hank Mobley Fifties Sessions (Disc 4)

Used drive  : PLEXTOR CD-R   PX-W4824A   Adapter: 0  ID: 1
Read mode   : Secure with NO C2, accurate stream, disable cache
Read offset correction : 98
Overread into Lead-In and Lead-Out : Yes

Used output format : C:\Programme\FLAC\flac.exe   (User Defined Encoder)
                     128 kBit/s
                     Additional command line options : -8 -V -T "artist=%a" -T "title=%t" -T "album=%g" -T "date=%y" -T "tracknumber=%n" -T "genre=%m" -T "comment=Exact Audio Copy 0.95 b4 Secure Mode / FLAC q8 v. 1.1.2" %s

Other options      : 
    Fill up missing offset samples with silence : Yes
    Delete leading and trailing silent blocks : No
    Installed external ASPI interface


Track  1
     Filename D:\Hank Mobley - The Complete Blue Note Hank Mobley Fifties Sessions (1998) [FLAC] (Mosaic)\Disc 4 of 6\01 - Hi Groove, Low Feedback.wav

     Pre-gap length  0:00:02.00

     Peak level 88.1 %
     Track quality 100.0 %
     Test CRC DE3FAB06
     Copy CRC DE3FAB06
     Copy OK

Track  2
     Filename D:\Hank Mobley - The Complete Blue Note Hank Mobley Fifties Sessions (1998) [FLAC] (Mosaic)\Disc 4 of 6\02 - Easy To Love.wav

     Pre-gap length  0:00:02.30

     Peak level 88.1 %
     Track quality 100.0 %
     Test CRC 4BAE7EAD
     Copy CRC 4BAE7EAD
     Copy OK

Track  3
     Filename D:\Hank Mobley - The Complete Blue Note Hank Mobley Fifties Sessions (1998) [FLAC] (Mosaic)\Disc 4 of 6\03 - Time After Time.wav

     Pre-gap length  0:00:02.44

     Peak level 88.1 %
     Track quality 100.0 %
     Test CRC 38201B38
     Copy CRC 38201B38
     Copy OK

Track  4
     Filename D:\Hank Mobley - The Complete Blue Note Hank Mobley Fifties Sessions (1998) [FLAC] (Mosaic)\Disc 4 of 6\04 - Dance Of The Infidels.wav

     Pre-gap length  0:00:02.46

     Peak level 88.1 %
     Track quality 99.9 %
     Test CRC 5A50C862
     Copy CRC 5A50C862
     Copy OK

Track  5
     Filename D:\Hank Mobley - The Complete Blue Note Hank Mobley Fifties Sessions (1998) [FLAC] (Mosaic)\Disc 4 of 6\05 - Mighty Moe And Joe.wav

     Pre-gap length  0:00:01.93

     Peak level 98.8 %
     Track quality 100.0 %
     Test CRC 608A403C
     Copy CRC 608A403C
     Copy OK

Track  6
     Filename D:\Hank Mobley - The Complete Blue Note Hank Mobley Fifties Sessions (1998) [FLAC] (Mosaic)\Disc 4 of 6\06 - Falling In Love with Love.wav

     Pre-gap length  0:00:03.00

     Peak level 98.8 %
     Track quality 100.0 %
     Test CRC 7DC1EC8A
     Copy CRC 7DC1EC8A
     Copy OK

Track  7
     Filename D:\Hank Mobley - The Complete Blue Note Hank Mobley Fifties Sessions (1998) [FLAC] (Mosaic)\Disc 4 of 6\07 - Bags' Groove.wav

     Pre-gap length  0:00:01.66

     Peak level 98.8 %
     Track quality 100.0 %
     Test CRC 7D87C2C1
     Copy CRC 7D87C2C1
     Copy OK

Track  8
     Filename D:\Hank Mobley - The Complete Blue Note Hank Mobley Fifties Sessions (1998) [FLAC] (Mosaic)\Disc 4 of 6\08 - Double Exposure.wav

     Pre-gap length  0:00:02.70

     Peak level 98.8 %
     Track quality 100.0 %
     Test CRC 4789B357
     Copy CRC 4789B357
     Copy OK

Track  9
     Filename D:\Hank Mobley - The Complete Blue Note Hank Mobley Fifties Sessions (1998) [FLAC] (Mosaic)\Disc 4 of 6\09 - News.wav

     Pre-gap length  0:00:02.00

     Peak level 98.8 %
     Track quality 99.9 %
     Test CRC F229DF9C
     Copy CRC F229DF9C
     Copy OK

Track 10
     Filename D:\Hank Mobley - The Complete Blue Note Hank Mobley Fifties Sessions (1998) [FLAC] (Mosaic)\Disc 4 of 6\10 - Mighty Moe And Joe (alt tk).wav

     Pre-gap length  0:00:01.93

     Peak level 98.8 %
     Track quality 100.0 %
     Test CRC 886CC1B9
     Copy CRC 886CC1B9
     Copy OK

No errors occured


End of status report
--------------------
EAC extraction logfile from 15. August 2006, 16:34 for CD
Hank Mobley / The Complete Blue Note Hank Mobley Fifties Sessions (Disc 5)

Used drive  : PLEXTOR CD-R   PX-W4824A   Adapter: 0  ID: 1
Read mode   : Secure with NO C2, accurate stream, disable cache
Read offset correction : 98
Overread into Lead-In and Lead-Out : Yes

Used output format : C:\Programme\FLAC\flac.exe   (User Defined Encoder)
                     128 kBit/s
                     Additional command line options : -8 -V -T "artist=%a" -T "title=%t" -T "album=%g" -T "date=%y" -T "tracknumber=%n" -T "genre=%m" -T "comment=Exact Audio Copy 0.95 b4 Secure Mode / FLAC q8 v. 1.1.2" %s

Other options      : 
    Fill up missing offset samples with silence : Yes
    Delete leading and trailing silent blocks : No
    Installed external ASPI interface


Track  1
     Filename D:\Hank Mobley - The Complete Blue Note Hank Mobley Fifties Sessions (1998) [FLAC] (Mosaic)\Disc 5 of 6\01 - Don't Get Too Hip.wav

     Pre-gap length  0:00:02.00

     Peak level 98.8 %
     Track quality 100.0 %
     Test CRC 4B4FF065
     Copy CRC 4B4FF065
     Copy OK

Track  2
     Filename D:\Hank Mobley - The Complete Blue Note Hank Mobley Fifties Sessions (1998) [FLAC] (Mosaic)\Disc 5 of 6\02 - Curtain Call.wav

     Pre-gap length  0:00:02.33

     Peak level 98.8 %
     Track quality 100.0 %
     Test CRC F259C92C
     Copy CRC F259C92C
     Copy OK

Track  3
     Filename D:\Hank Mobley - The Complete Blue Note Hank Mobley Fifties Sessions (1998) [FLAC] (Mosaic)\Disc 5 of 6\03 - Deep In A Dream.wav

     Pre-gap length  0:00:03.04

     Peak level 94.7 %
     Track quality 100.0 %
     Test CRC 0AA151AA
     Copy CRC 0AA151AA
     Copy OK

Track  4
     Filename D:\Hank Mobley - The Complete Blue Note Hank Mobley Fifties Sessions (1998) [FLAC] (Mosaic)\Disc 5 of 6\04 - The Mobe.wav

     Pre-gap length  0:00:02.30

     Peak level 98.5 %
     Track quality 100.0 %
     Test CRC 4990666B
     Copy CRC 4990666B
     Copy OK

Track  5
     Filename D:\Hank Mobley - The Complete Blue Note Hank Mobley Fifties Sessions (1998) [FLAC] (Mosaic)\Disc 5 of 6\05 - My Reverie.wav

     Pre-gap length  0:00:02.26

     Peak level 97.6 %
     Track quality 100.0 %
     Test CRC 9C3C4A5A
     Copy CRC 9C3C4A5A
     Copy OK

Track  6
     Filename D:\Hank Mobley - The Complete Blue Note Hank Mobley Fifties Sessions (1998) [FLAC] (Mosaic)\Disc 5 of 6\06 - On The Bright Side.wav

     Pre-gap length  0:00:01.80

     Peak level 98.8 %
     Track quality 100.0 %
     Test CRC D2F6B502
     Copy CRC D2F6B502
     Copy OK

Track  7
     Filename D:\Hank Mobley - The Complete Blue Note Hank Mobley Fifties Sessions (1998) [FLAC] (Mosaic)\Disc 5 of 6\07 - Poppin'.wav

     Pre-gap length  0:00:02.49

     Peak level 98.4 %
     Track quality 100.0 %
     Test CRC 8EB55B69
     Copy CRC 8EB55B69
     Copy OK

Track  8
     Filename D:\Hank Mobley - The Complete Blue Note Hank Mobley Fifties Sessions (1998) [FLAC] (Mosaic)\Disc 5 of 6\08 - Darn That Dream.wav

     Pre-gap length  0:00:02.00

     Peak level 94.5 %
     Track quality 100.0 %
     Test CRC 98506A6C
     Copy CRC 98506A6C
     Copy OK

Track  9
     Filename D:\Hank Mobley - The Complete Blue Note Hank Mobley Fifties Sessions (1998) [FLAC] (Mosaic)\Disc 5 of 6\09 - Gettin' Into Something.wav

     Pre-gap length  0:00:02.13

     Peak level 98.4 %
     Track quality 100.0 %
     Test CRC 80ACDF73
     Copy CRC 80ACDF73
     Copy OK

Track 10
     Filename D:\Hank Mobley - The Complete Blue Note Hank Mobley Fifties Sessions (1998) [FLAC] (Mosaic)\Disc 5 of 6\10 - Tune Up.wav

     Pre-gap length  0:00:01.90

     Peak level 98.8 %
     Track quality 99.9 %
     Test CRC 848AE29C
     Copy CRC 848AE29C
     Copy OK

No errors occured


End of status report
--------------------
EAC extraction logfile from 15. August 2006, 17:30 for CD
Hank Mobley / The Complete Blue Note Hank Mobley Fifties Sessions (Disc 6)

Used drive  : PLEXTOR CD-R   PX-W4824A   Adapter: 0  ID: 1
Read mode   : Secure with NO C2, accurate stream, disable cache
Read offset correction : 98
Overread into Lead-In and Lead-Out : Yes

Used output format : C:\Programme\FLAC\flac.exe   (User Defined Encoder)
                     128 kBit/s
                     Additional command line options : -8 -V -T "artist=%a" -T "title=%t" -T "album=%g" -T "date=%y" -T "tracknumber=%n" -T "genre=%m" -T "comment=Exact Audio Copy 0.95 b4 Secure Mode / FLAC q8 v. 1.1.2" %s

Other options      : 
    Fill up missing offset samples with silence : Yes
    Delete leading and trailing silent blocks : No
    Installed external ASPI interface


Track  1
     Filename D:\Hank Mobley - The Complete Blue Note Hank Mobley Fifties Sessions (1998) [FLAC] (Mosaic)\Disc 6 of 6\01 - East Of Brooklyn.wav

     Pre-gap length  0:00:02.00

     Peak level 98.8 %
     Track quality 100.0 %
     Test CRC BB685A32
     Copy CRC BB685A32
     Copy OK

Track  2
     Filename D:\Hank Mobley - The Complete Blue Note Hank Mobley Fifties Sessions (1998) [FLAC] (Mosaic)\Disc 6 of 6\02 - High And Flighty.wav

     Pre-gap length  0:00:02.20

     Peak level 98.8 %
     Track quality 100.0 %
     Test CRC ECEB06C3
     Copy CRC ECEB06C3
     Copy OK

Track  3
     Filename D:\Hank Mobley - The Complete Blue Note Hank Mobley Fifties Sessions (1998) [FLAC] (Mosaic)\Disc 6 of 6\03 - Speak Low.wav

     Pre-gap length  0:00:02.10

     Peak level 98.8 %
     Track quality 100.0 %
     Test CRC 9E804D3A
     Copy CRC 9E804D3A
     Copy OK

Track  4
     Filename D:\Hank Mobley - The Complete Blue Note Hank Mobley Fifties Sessions (1998) [FLAC] (Mosaic)\Disc 6 of 6\04 - Peckin' Time.wav

     Pre-gap length  0:00:02.06

     Peak level 98.8 %
     Track quality 100.0 %
     Test CRC 97724FB0
     Copy CRC 97724FB0
     Copy OK

Track  5
     Filename D:\Hank Mobley - The Complete Blue Note Hank Mobley Fifties Sessions (1998) [FLAC] (Mosaic)\Disc 6 of 6\05 - Stretchin' Out.wav

     Pre-gap length  0:00:02.13

     Peak level 98.8 %
     Track quality 100.0 %
     Test CRC 1111EEBE
     Copy CRC 1111EEBE
     Copy OK

Track  6
     Filename D:\Hank Mobley - The Complete Blue Note Hank Mobley Fifties Sessions (1998) [FLAC] (Mosaic)\Disc 6 of 6\06 - Git-Go Blues.wav

     Pre-gap length  0:00:02.22

     Peak level 98.8 %
     Track quality 100.0 %
     Test CRC C2677A00
     Copy CRC C2677A00
     Copy OK

Track  7
     Filename D:\Hank Mobley - The Complete Blue Note Hank Mobley Fifties Sessions (1998) [FLAC] (Mosaic)\Disc 6 of 6\07 - High And Flighty (alt tk).wav

     Pre-gap length  0:00:02.30

     Peak level 98.8 %
     Track quality 100.0 %
     Test CRC 8A6903A1
     Copy CRC 8A6903A1
     Copy OK

Track  8
     Filename D:\Hank Mobley - The Complete Blue Note Hank Mobley Fifties Sessions (1998) [FLAC] (Mosaic)\Disc 6 of 6\08 - Speak Low (alt tk).wav

     Pre-gap length  0:00:02.04

     Peak level 98.8 %
     Track quality 99.9 %
     Test CRC 01CF22BC
     Copy CRC 01CF22BC
     Copy OK

Track  9
     Filename D:\Hank Mobley - The Complete Blue Note Hank Mobley Fifties Sessions (1998) [FLAC] (Mosaic)\Disc 6 of 6\09 - Stretchin' Out (alt tk).wav

     Pre-gap length  0:00:02.66

     Peak level 98.8 %
     Track quality 99.9 %
     Test CRC 3645B56A
     Copy CRC 3645B56A
     Copy OK

No errors occured


End of status report

